<svg width="148" height="42" viewBox="0 0 148 42" fill="none" xmlns="http://www.w3.org/2000/svg">
<path d="M1.77344 32V9.65625H6.19141V18.6064L8.27344 9.65625H12.7676L10.2666 19.8887L13.2881 32H8.6543L6.2168 21.1836V32H1.77344ZM17.4521 32.2031C16.3942 32.2031 15.5859 31.9577 15.0273 31.4668C14.4772 30.9759 14.1006 30.3031 13.8975 29.4482C13.6943 28.5934 13.5928 27.6243 13.5928 26.541C13.5928 25.3815 13.707 24.4336 13.9355 23.6973C14.1641 22.9525 14.5534 22.3431 15.1035 21.8691C15.6621 21.3952 16.4281 20.9932 17.4014 20.6631L20.2197 19.6982V17.7432C20.2197 16.7191 19.8854 16.207 19.2168 16.207C18.6074 16.207 18.3027 16.6217 18.3027 17.4512V18.5938H13.8848C13.8763 18.526 13.8721 18.4414 13.8721 18.3398C13.8721 18.2298 13.8721 18.1071 13.8721 17.9717C13.8721 16.0758 14.3164 14.7344 15.2051 13.9473C16.1022 13.1517 17.5199 12.7539 19.458 12.7539C20.4736 12.7539 21.3835 12.9359 22.1875 13.2998C22.9915 13.6553 23.6263 14.1842 24.0918 14.8867C24.5658 15.5892 24.8027 16.4567 24.8027 17.4893V32H20.2832V29.7402C20.0632 30.5358 19.6992 31.1452 19.1914 31.5684C18.6836 31.9915 18.1038 32.2031 17.4521 32.2031ZM19.2422 28.6738C19.6146 28.6738 19.8685 28.5173 20.0039 28.2041C20.1393 27.891 20.207 27.5524 20.207 27.1885V21.8818C19.5807 22.1357 19.0941 22.4574 18.7471 22.8467C18.4001 23.2275 18.2266 23.7904 18.2266 24.5352V26.9854C18.2266 28.111 18.5651 28.6738 19.2422 28.6738ZM30.4648 32.2031C29.2376 32.2031 28.4082 31.945 27.9766 31.4287C27.5534 30.904 27.3418 30.1042 27.3418 29.0293V17.1592H26.0596V13.6934H27.3418V9.65625H31.7598V13.6934H33.042V17.1592H31.7598V27.9629C31.7598 28.276 31.8105 28.4961 31.9121 28.623C32.0137 28.75 32.2083 28.8135 32.4961 28.8135C32.6992 28.8135 32.8812 28.7965 33.042 28.7627V31.8604C32.9404 31.8942 32.623 31.9577 32.0898 32.0508C31.5566 32.1523 31.015 32.2031 30.4648 32.2031ZM34.502 32V9.65625H39.1738V14.8486C39.4193 14.1377 39.7959 13.613 40.3037 13.2744C40.8115 12.9274 41.404 12.7539 42.0811 12.7539C43.4014 12.7539 44.362 13.1686 44.9629 13.998C45.5638 14.8275 45.8643 15.9404 45.8643 17.3369V32H41.2686V17.6289C41.2686 17.2142 41.1797 16.8757 41.002 16.6133C40.8327 16.3509 40.5618 16.2197 40.1895 16.2197C39.8763 16.2197 39.6266 16.3551 39.4404 16.626C39.2627 16.8968 39.1738 17.2184 39.1738 17.5908V32H34.502ZM47.6543 32V12.957H52.2754V15.0771C52.4954 14.3408 52.8848 13.7653 53.4434 13.3506C54.002 12.9359 54.7044 12.7285 55.5508 12.7285V16.5244C55.1784 16.5244 54.734 16.5667 54.2178 16.6514C53.7015 16.7275 53.2487 16.8376 52.8594 16.9814C52.4701 17.1169 52.2754 17.2692 52.2754 17.4385V32H47.6543ZM56.2998 35.1738V32.292H58.4834C58.8135 32.292 58.9785 32.1777 58.9785 31.9492C58.9785 31.8307 58.9658 31.708 58.9404 31.5811L55.957 12.957H60.3115L61.5811 26.9727L63.0791 12.957H67.459L63.9297 32.9902C63.8027 33.7096 63.5573 34.2513 63.1934 34.6152C62.8379 34.9876 62.2497 35.1738 61.4287 35.1738H56.2998ZM68.6523 32V12.957H73.1973V15.3818C73.3665 14.654 73.6797 14.0361 74.1367 13.5283C74.6022 13.012 75.2454 12.7539 76.0664 12.7539C77.3867 12.7539 78.3431 13.1602 78.9355 13.9727C79.5365 14.7852 79.8369 15.8981 79.8369 17.3115V32H75.3555V17.7812C75.3555 17.4089 75.2793 17.0661 75.127 16.7529C74.9746 16.4313 74.7122 16.2705 74.3398 16.2705C73.9928 16.2705 73.7347 16.3932 73.5654 16.6387C73.4046 16.8757 73.3031 17.1761 73.2607 17.54C73.2184 17.8955 73.1973 18.251 73.1973 18.6064V32H68.6523ZM87.7969 32V9.65625H94.6016L96.4805 23.2783L98.3467 9.65625H105.215V32H101.127V15.9023L98.5625 32H94.5508L91.834 15.9023V32H87.7969ZM112.654 32.2031C108.863 32.2031 106.967 30.2354 106.967 26.2998V18.6572C106.967 16.863 107.47 15.4326 108.478 14.3662C109.485 13.2913 110.877 12.7539 112.654 12.7539C114.44 12.7539 115.837 13.2913 116.844 14.3662C117.851 15.4326 118.354 16.863 118.354 18.6572V26.2998C118.354 30.2354 116.454 32.2031 112.654 32.2031ZM112.654 28.6992C113.035 28.6992 113.306 28.5638 113.467 28.293C113.636 28.0137 113.721 27.6624 113.721 27.2393V17.9336C113.721 16.8249 113.365 16.2705 112.654 16.2705C111.943 16.2705 111.588 16.8249 111.588 17.9336V27.2393C111.588 27.6624 111.668 28.0137 111.829 28.293C111.998 28.5638 112.273 28.6992 112.654 28.6992ZM120.043 32V12.957H124.664V15.0771C124.884 14.3408 125.273 13.7653 125.832 13.3506C126.391 12.9359 127.093 12.7285 127.939 12.7285V16.5244C127.567 16.5244 127.123 16.5667 126.606 16.6514C126.09 16.7275 125.637 16.8376 125.248 16.9814C124.859 17.1169 124.664 17.2692 124.664 17.4385V32H120.043ZM129.031 11.7891V8.00586H133.576V11.7891H129.031ZM129.031 32V12.957H133.576V32H129.031ZM140.597 32.2031C136.839 32.2031 134.96 30.2988 134.96 26.4902V24.9795H139.53V27.2139C139.53 27.6455 139.615 27.984 139.784 28.2295C139.953 28.4749 140.224 28.5977 140.597 28.5977C141.257 28.5977 141.587 28.1025 141.587 27.1123C141.587 26.2829 141.413 25.665 141.066 25.2588C140.719 24.8441 140.296 24.4463 139.797 24.0654L137.372 22.1992C136.61 21.6068 136.031 20.9805 135.633 20.3203C135.235 19.6602 135.036 18.7419 135.036 17.5654C135.036 16.4736 135.294 15.5723 135.811 14.8613C136.335 14.1504 137.025 13.6214 137.88 13.2744C138.743 12.9274 139.674 12.7539 140.673 12.7539C144.363 12.7539 146.208 14.5947 146.208 18.2764V18.6318H141.511V17.9082C141.511 17.5273 141.443 17.1592 141.308 16.8037C141.181 16.4482 140.927 16.2705 140.546 16.2705C139.903 16.2705 139.581 16.609 139.581 17.2861C139.581 17.9717 139.852 18.5091 140.394 18.8984L143.212 20.9551C144.092 21.5898 144.828 22.3431 145.421 23.2148C146.022 24.0866 146.322 25.2461 146.322 26.6934C146.322 28.4876 145.81 29.8545 144.786 30.7939C143.771 31.7334 142.374 32.2031 140.597 32.2031Z" fill="#171921"/>
</svg>
