<svg width="181" height="51" viewBox="0 0 181 51" fill="none" xmlns="http://www.w3.org/2000/svg">
<path d="M2.00195 39V11.5H7.43945V22.5156L10.002 11.5H15.5332L12.4551 24.0938L16.1738 39H10.4707L7.4707 25.6875V39H2.00195ZM21.2988 39.25C19.9967 39.25 19.002 38.9479 18.3145 38.3438C17.6374 37.7396 17.1738 36.9115 16.9238 35.8594C16.6738 34.8073 16.5488 33.6146 16.5488 32.2812C16.5488 30.8542 16.6895 29.6875 16.9707 28.7812C17.252 27.8646 17.7311 27.1146 18.4082 26.5312C19.0957 25.9479 20.0384 25.4531 21.2363 25.0469L24.7051 23.8594V21.4531C24.7051 20.1927 24.2936 19.5625 23.4707 19.5625C22.7207 19.5625 22.3457 20.0729 22.3457 21.0938V22.5H16.9082C16.8978 22.4167 16.8926 22.3125 16.8926 22.1875C16.8926 22.0521 16.8926 21.901 16.8926 21.7344C16.8926 19.401 17.4395 17.75 18.5332 16.7812C19.6374 15.8021 21.3822 15.3125 23.7676 15.3125C25.0176 15.3125 26.1374 15.5365 27.127 15.9844C28.1165 16.4219 28.8978 17.0729 29.4707 17.9375C30.054 18.8021 30.3457 19.8698 30.3457 21.1406V39H24.7832V36.2188C24.5124 37.1979 24.0645 37.9479 23.4395 38.4688C22.8145 38.9896 22.1009 39.25 21.2988 39.25ZM23.502 34.9062C23.9603 34.9062 24.2728 34.7135 24.4395 34.3281C24.6061 33.9427 24.6895 33.526 24.6895 33.0781V26.5469C23.9186 26.8594 23.3197 27.2552 22.8926 27.7344C22.4655 28.2031 22.252 28.8958 22.252 29.8125V32.8281C22.252 34.2135 22.6686 34.9062 23.502 34.9062ZM37.3145 39.25C35.804 39.25 34.7832 38.9323 34.252 38.2969C33.7311 37.651 33.4707 36.6667 33.4707 35.3438V20.7344H31.8926V16.4688H33.4707V11.5H38.9082V16.4688H40.4863V20.7344H38.9082V34.0312C38.9082 34.4167 38.9707 34.6875 39.0957 34.8438C39.2207 35 39.4603 35.0781 39.8145 35.0781C40.0645 35.0781 40.2884 35.0573 40.4863 35.0156V38.8281C40.3613 38.8698 39.9707 38.9479 39.3145 39.0625C38.6582 39.1875 37.9915 39.25 37.3145 39.25ZM42.2832 39V11.5H48.0332V17.8906C48.3353 17.0156 48.7988 16.3698 49.4238 15.9531C50.0488 15.526 50.778 15.3125 51.6113 15.3125C53.2363 15.3125 54.4186 15.8229 55.1582 16.8438C55.8978 17.8646 56.2676 19.2344 56.2676 20.9531V39H50.6113V21.3125C50.6113 20.8021 50.502 20.3854 50.2832 20.0625C50.0749 19.7396 49.7415 19.5781 49.2832 19.5781C48.8978 19.5781 48.5905 19.7448 48.3613 20.0781C48.1426 20.4115 48.0332 20.8073 48.0332 21.2656V39H42.2832ZM58.4707 39V15.5625H64.1582V18.1719C64.429 17.2656 64.9082 16.5573 65.5957 16.0469C66.2832 15.5365 67.1478 15.2812 68.1895 15.2812V19.9531C67.7311 19.9531 67.1842 20.0052 66.5488 20.1094C65.9134 20.2031 65.3561 20.3385 64.877 20.5156C64.3978 20.6823 64.1582 20.8698 64.1582 21.0781V39H58.4707ZM69.1113 42.9062V39.3594H71.7988C72.2051 39.3594 72.4082 39.2188 72.4082 38.9375C72.4082 38.7917 72.3926 38.6406 72.3613 38.4844L68.6895 15.5625H74.0488L75.6113 32.8125L77.4551 15.5625H82.8457L78.502 40.2188C78.3457 41.1042 78.0436 41.7708 77.5957 42.2188C77.1582 42.6771 76.4342 42.9062 75.4238 42.9062H69.1113ZM84.3145 39V15.5625H89.9082V18.5469C90.1165 17.651 90.502 16.8906 91.0645 16.2656C91.6374 15.6302 92.429 15.3125 93.4395 15.3125C95.0645 15.3125 96.2415 15.8125 96.9707 16.8125C97.7103 17.8125 98.0801 19.1823 98.0801 20.9219V39H92.5645V21.5C92.5645 21.0417 92.4707 20.6198 92.2832 20.2344C92.0957 19.8385 91.7728 19.6406 91.3145 19.6406C90.8874 19.6406 90.5697 19.7917 90.3613 20.0938C90.1634 20.3854 90.0384 20.7552 89.9863 21.2031C89.9342 21.6406 89.9082 22.0781 89.9082 22.5156V39H84.3145ZM107.877 39V11.5H116.252L118.564 28.2656L120.861 11.5H129.314V39H124.283V19.1875L121.127 39H116.189L112.846 19.1875V39H107.877ZM138.471 39.25C133.804 39.25 131.471 36.8281 131.471 31.9844V22.5781C131.471 20.3698 132.09 18.6094 133.33 17.2969C134.57 15.974 136.283 15.3125 138.471 15.3125C140.669 15.3125 142.387 15.974 143.627 17.2969C144.867 18.6094 145.486 20.3698 145.486 22.5781V31.9844C145.486 36.8281 143.148 39.25 138.471 39.25ZM138.471 34.9375C138.939 34.9375 139.273 34.7708 139.471 34.4375C139.679 34.0938 139.783 33.6615 139.783 33.1406V21.6875C139.783 20.3229 139.346 19.6406 138.471 19.6406C137.596 19.6406 137.158 20.3229 137.158 21.6875V33.1406C137.158 33.6615 137.257 34.0938 137.455 34.4375C137.663 34.7708 138.002 34.9375 138.471 34.9375ZM147.564 39V15.5625H153.252V18.1719C153.523 17.2656 154.002 16.5573 154.689 16.0469C155.377 15.5365 156.242 15.2812 157.283 15.2812V19.9531C156.825 19.9531 156.278 20.0052 155.643 20.1094C155.007 20.2031 154.45 20.3385 153.971 20.5156C153.492 20.6823 153.252 20.8698 153.252 21.0781V39H147.564ZM158.627 14.125V9.46875H164.221V14.125H158.627ZM158.627 39V15.5625H164.221V39H158.627ZM172.861 39.25C168.236 39.25 165.924 36.9062 165.924 32.2188V30.3594H171.549V33.1094C171.549 33.6406 171.653 34.0573 171.861 34.3594C172.07 34.6615 172.403 34.8125 172.861 34.8125C173.674 34.8125 174.08 34.2031 174.08 32.9844C174.08 31.9635 173.867 31.2031 173.439 30.7031C173.012 30.1927 172.492 29.7031 171.877 29.2344L168.893 26.9375C167.955 26.2083 167.242 25.4375 166.752 24.625C166.262 23.8125 166.018 22.6823 166.018 21.2344C166.018 19.8906 166.335 18.7812 166.971 17.9062C167.617 17.0312 168.465 16.3802 169.518 15.9531C170.58 15.526 171.726 15.3125 172.955 15.3125C177.497 15.3125 179.768 17.5781 179.768 22.1094V22.5469H173.986V21.6562C173.986 21.1875 173.903 20.7344 173.736 20.2969C173.58 19.8594 173.268 19.6406 172.799 19.6406C172.007 19.6406 171.611 20.0573 171.611 20.8906C171.611 21.7344 171.945 22.3958 172.611 22.875L176.08 25.4062C177.163 26.1875 178.07 27.1146 178.799 28.1875C179.538 29.2604 179.908 30.6875 179.908 32.4688C179.908 34.6771 179.278 36.3594 178.018 37.5156C176.768 38.6719 175.049 39.25 172.861 39.25Z" fill="white"/>
</svg>
